<svg viewBox="0 0 300 300" xmlns="http://www.w3.org/2000/svg" xmlns:xlink="http://www.w3.org/1999/xlink"><linearGradient id="a" gradientTransform="matrix(0 1 -1 0 15427.5 -195.5)" gradientUnits="userSpaceOnUse" x1="556.92" x2="134.07" y1="15488.93" y2="15066.08"><stop offset="0" stop-color="#4d27a8"/><stop offset="1" stop-color="#a166ff"/></linearGradient><path d="m.5.5h299v299h-299z" fill="url(#a)"/><g fill="#fff"><path d="m150.24 249.67a4 4 0 0 1 -2.54-.91l-24.16-19.94a4 4 0 0 1 2.54-7.06h12v-12h8v15.95a4 4 0 0 1 -4 4h-4.86l13 10.76 12.78-10.74h-5a4 4 0 0 1 -4-4v-15.93h8v12h12a4 4 0 0 1 2.57 7l-23.77 19.93a3.93 3.93 0 0 1 -2.56.94z"/><path d="m185.76 100.13-1 7.89c11.25 1.36 16.71 3 19.26 4.11-7.06 3.07-26.95 6-54.06 6-28 0-47.68-3.19-54.18-6 5.74-2.44 22.25-5.7 50.19-6v-8c-54.26.56-59.8 9.93-59.8 14a5.87 5.87 0 0 0 .08.79 4.47 4.47 0 0 0 .48 1.4l.8 1.39a4.49 4.49 0 0 0 .64.88 9.43 9.43 0 0 0 1.31 1.08l44.53 69.57v10.64a4 4 0 0 0 2.59 3.75 39.49 39.49 0 0 0 13.64 2.55 34.87 34.87 0 0 0 13.16-2.63 4 4 0 0 0 2.51-3.67v-10.68l44.41-69.49a.21.21 0 0 0 .16-.08c2.71-1.92 3.27-4.07 3.27-5.5.04-4.27-3.27-9.01-27.99-12zm-27.15 83.76a3.83 3.83 0 0 0 -.61 2.11v9a26.91 26.91 0 0 1 -16 0v-9a3.83 3.83 0 0 0 -.64-2.15l-39.56-61.8c12.52 2.75 31.06 4 48.2 4 16.82 0 35.52-1.28 48.12-4z"/><path d="m173.92 110.13h-15.92a4 4 0 0 1 -4-4v-16a4 4 0 0 1 4-4h15.95a4 4 0 0 1 4 4v16a4 4 0 0 1 -4.03 4zm-12-8h8v-8h-8z"/><path d="m166 74.25h-16a4 4 0 0 1 -4-4v-15.93a4 4 0 0 1 4-4h16a4 4 0 0 1 4 4v15.95a4 4 0 0 1 -4 3.98zm-12-8h8v-8h-8z"/><path d="m134.05 94.19h-15.94a4 4 0 0 1 -4-4v-16a4 4 0 0 1 4-4h15.94a4 4 0 0 1 4 4v16a4 4 0 0 1 -4 4zm-12-8h8v-8h-8z"/></g></svg>