<svg version="1.1" id="Layer_1" xmlns="http://www.w3.org/2000/svg" xmlns:xlink="http://www.w3.org/1999/xlink" x="0px" y="0px"
	 width="100%" viewBox="0 0 600 518" enable-background="new 0 0 600 518" xml:space="preserve">
<path fill="#FFFFFF" opacity="1.000000" stroke="none" 
	d="
M601.000000,71.000000 
	C601.000000,220.292374 601.000000,369.584747 601.000000,518.938599 
	C401.095795,518.938599 201.191574,518.938599 1.000000,518.938599 
	C1.000000,347.309357 1.000000,175.618561 1.331367,3.533989 
	C33.705685,34.856640 65.763611,66.557961 97.787811,98.293312 
	C138.216049,138.356903 178.625885,178.439117 219.023315,218.533798 
	C229.666290,229.097000 240.229599,239.740463 250.843796,250.332733 
	C251.862274,251.349121 252.982803,252.263229 254.310440,253.452850 
	C262.781830,244.212875 270.982178,235.187408 279.273438,226.246216 
	C288.932404,215.830109 298.641327,205.459900 308.382355,195.120422 
	C320.178528,182.599609 332.017792,170.119324 343.863953,157.645737 
	C351.048584,150.080566 358.341461,142.617371 365.469208,134.999344 
	C369.471985,130.721237 373.237732,126.221283 377.474213,121.407768 
	C366.666412,118.006859 356.301331,114.792442 345.966461,111.483681 
	C321.851379,103.763115 297.763489,95.957520 273.640808,88.260887 
	C249.818405,80.660088 225.947739,73.210388 202.133316,65.584900 
	C177.867889,57.815002 153.655716,49.878990 129.400665,42.076515 
	C107.427048,35.007938 85.412819,28.065516 63.442871,20.985620 
	C42.943867,14.379745 22.479572,7.666169 2.000000,1.000000 
	C201.666672,1.000000 401.333344,1.000000 601.000000,1.000000 
	C601.000000,23.434254 601.000000,45.753242 600.630981,68.534607 
	C592.205811,64.001038 584.164978,58.980236 576.090576,54.013962 
	C554.856445,40.953682 533.574402,27.970932 512.403381,14.809346 
	C509.445251,12.970345 507.569794,12.688685 504.907227,15.447290 
	C488.403351,32.546272 471.708466,49.460876 455.083496,66.443039 
	C454.787048,66.745903 454.571045,67.127510 454.249786,67.564423 
	C461.142822,68.053368 467.809113,68.778229 474.489685,68.951660 
	C492.738068,69.425392 510.991882,69.705681 529.244629,69.990234 
	C553.162537,70.363106 577.081482,70.666641 601.000000,71.000000 
M470.802856,516.221130 
	C471.138184,516.352844 471.473511,516.484558 471.808838,516.616272 
	C471.565826,516.052551 471.322845,515.488892 471.005768,514.040283 
	C470.671417,511.128632 470.553436,508.172668 469.967651,505.312500 
	C466.182556,486.832306 462.329712,468.365784 458.431427,449.909058 
	C455.000885,433.666718 451.470520,417.445496 448.005249,401.210449 
	C444.405334,384.344452 440.829681,367.473328 437.245178,350.604034 
	C434.162781,336.097961 431.050385,321.598175 428.009918,307.083282 
	C424.174805,288.774750 420.476746,270.437256 416.575775,252.142883 
	C412.813080,234.496948 408.746552,216.915436 405.034485,199.259155 
	C400.886780,179.530838 397.041321,159.739044 392.919983,140.005020 
	C392.336853,137.212753 390.697327,135.474350 387.960236,138.511032 
	C384.542908,142.302383 381.126526,146.095444 377.655731,149.837631 
	C368.673279,159.522400 359.676971,169.194427 350.657318,178.844589 
	C335.991028,194.536087 321.340363,210.242508 306.606903,225.870819 
	C298.420380,234.554596 290.025940,243.042297 281.828827,251.716248 
	C277.095337,256.725067 272.567993,261.928650 267.798706,267.209686 
	C274.755554,275.532532 281.750397,283.713318 288.536041,292.064087 
	C297.976501,303.682129 307.182892,315.490479 316.634491,327.099304 
	C324.880157,337.226990 333.407867,347.124908 341.664398,357.243927 
	C352.779419,370.866333 363.696594,384.650146 374.805939,398.277252 
	C384.289764,409.910370 394.009247,421.351593 403.472229,433.001312 
	C415.786316,448.161011 427.915039,463.471100 440.189178,478.663422 
	C450.216309,491.074463 460.339630,503.407776 470.802856,516.221130 
M217.013046,419.517761 
	C230.220230,425.318665 243.400467,431.181854 256.640991,436.905640 
	C275.752075,445.167236 294.930817,453.272491 314.035095,461.549713 
	C328.006470,467.602966 341.876282,473.890350 355.842499,479.955688 
	C372.001190,486.973175 388.219391,493.853577 404.405182,500.808777 
	C417.766815,506.550446 431.118866,512.314392 445.319427,518.432190 
	C444.838287,516.400513 444.906616,514.782471 444.148773,513.804688 
	C439.860870,508.272400 435.406677,502.867401 430.949615,497.468170 
	C422.743835,487.527710 414.422272,477.681915 406.286255,467.684937 
	C396.840851,456.079010 387.564758,444.335510 378.174927,432.684143 
	C369.696228,422.163483 360.981018,411.827087 352.734955,401.128204 
	C348.882812,396.130249 344.900726,393.758759 338.112366,393.800262 
	C280.809692,394.150452 223.503983,394.000000 166.199173,394.000000 
	C164.624649,394.000000 163.050125,394.000000 161.475601,394.000000 
	C161.354858,394.407135 161.234100,394.814240 161.113342,395.221375 
	C179.538147,403.159698 197.962936,411.098053 217.013046,419.517761 
M472.423248,9.959809 
	C415.351501,32.013454 358.279755,54.067101 300.031982,76.575180 
	C308.330139,79.240417 315.334656,81.498260 322.344299,83.740082 
	C344.781067,90.915825 367.198364,98.154419 389.695984,105.134018 
	C391.604858,105.726212 394.854797,105.366982 396.117310,104.095253 
	C402.008575,98.160858 407.340027,91.676247 413.021820,85.527168 
	C422.773560,74.973351 432.596680,64.484634 442.463867,54.038517 
	C455.074707,40.687801 467.790161,27.435808 480.381287,14.066662 
	C482.519989,11.795807 484.260864,9.150247 486.185516,6.677800 
	C485.885742,6.266723 485.585938,5.855646 485.286163,5.444569 
	C481.205200,6.777120 477.124207,8.109671 472.423248,9.959809 
z"/>
<path fill="#000000" opacity="1.000000" stroke="none" 
	d="
M1.500000,1.000000 
	C22.479572,7.666169 42.943867,14.379745 63.442871,20.985620 
	C85.412819,28.065516 107.427048,35.007938 129.400665,42.076515 
	C153.655716,49.878990 177.867889,57.815002 202.133316,65.584900 
	C225.947739,73.210388 249.818405,80.660088 273.640808,88.260887 
	C297.763489,95.957520 321.851379,103.763115 345.966461,111.483681 
	C356.301331,114.792442 366.666412,118.006859 377.474213,121.407768 
	C373.237732,126.221283 369.471985,130.721237 365.469208,134.999344 
	C358.341461,142.617371 351.048584,150.080566 343.863953,157.645737 
	C332.017792,170.119324 320.178528,182.599609 308.382355,195.120422 
	C298.641327,205.459900 288.932404,215.830109 279.273438,226.246216 
	C270.982178,235.187408 262.781830,244.212875 254.310440,253.452850 
	C252.982803,252.263229 251.862274,251.349121 250.843796,250.332733 
	C240.229599,239.740463 229.666290,229.097000 219.023315,218.533798 
	C178.625885,178.439117 138.216049,138.356903 97.787811,98.293312 
	C65.763611,66.557961 33.705685,34.856640 1.331367,3.070105 
	C1.000000,2.333333 1.000000,1.666667 1.500000,1.000000 
z"/>
<path fill="#000000" opacity="1.000000" stroke="none" 
	d="
M601.000000,70.666672 
	C577.081482,70.666641 553.162537,70.363106 529.244629,69.990234 
	C510.991882,69.705681 492.738068,69.425392 474.489685,68.951660 
	C467.809113,68.778229 461.142822,68.053368 454.249786,67.564423 
	C454.571045,67.127510 454.787048,66.745903 455.083496,66.443039 
	C471.708466,49.460876 488.403351,32.546272 504.907227,15.447290 
	C507.569794,12.688685 509.445251,12.970345 512.403381,14.809346 
	C533.574402,27.970932 554.856445,40.953682 576.090576,54.013962 
	C584.164978,58.980236 592.205811,64.001038 600.630981,68.998489 
	C601.000000,69.444443 601.000000,69.888893 601.000000,70.666672 
z"/>
<path fill="#000000" opacity="1.000000" stroke="none" 
	d="
M470.420319,515.775574 
	C460.339630,503.407776 450.216309,491.074463 440.189178,478.663422 
	C427.915039,463.471100 415.786316,448.161011 403.472229,433.001312 
	C394.009247,421.351593 384.289764,409.910370 374.805939,398.277252 
	C363.696594,384.650146 352.779419,370.866333 341.664398,357.243927 
	C333.407867,347.124908 324.880157,337.226990 316.634491,327.099304 
	C307.182892,315.490479 297.976501,303.682129 288.536041,292.064087 
	C281.750397,283.713318 274.755554,275.532532 267.798706,267.209686 
	C272.567993,261.928650 277.095337,256.725067 281.828827,251.716248 
	C290.025940,243.042297 298.420380,234.554596 306.606903,225.870819 
	C321.340363,210.242508 335.991028,194.536087 350.657318,178.844589 
	C359.676971,169.194427 368.673279,159.522400 377.655731,149.837631 
	C381.126526,146.095444 384.542908,142.302383 387.960236,138.511032 
	C390.697327,135.474350 392.336853,137.212753 392.919983,140.005020 
	C397.041321,159.739044 400.886780,179.530838 405.034485,199.259155 
	C408.746552,216.915436 412.813080,234.496948 416.575775,252.142883 
	C420.476746,270.437256 424.174805,288.774750 428.009918,307.083282 
	C431.050385,321.598175 434.162781,336.097961 437.245178,350.604034 
	C440.829681,367.473328 444.405334,384.344452 448.005249,401.210449 
	C451.470520,417.445496 455.000885,433.666718 458.431427,449.909058 
	C462.329712,468.365784 466.182556,486.832306 469.967651,505.312500 
	C470.553436,508.172668 470.671417,511.128632 470.868347,514.687866 
	C470.627380,515.482178 470.523865,515.628906 470.420319,515.775574 
z"/>
<path fill="#000000" opacity="1.000000" stroke="none" 
	d="
M216.700394,419.277100 
	C197.962936,411.098053 179.538147,403.159698 161.113342,395.221375 
	C161.234100,394.814240 161.354858,394.407135 161.475601,394.000000 
	C163.050125,394.000000 164.624649,394.000000 166.199173,394.000000 
	C223.503983,394.000000 280.809692,394.150452 338.112366,393.800262 
	C344.900726,393.758759 348.882812,396.130249 352.734955,401.128204 
	C360.981018,411.827087 369.696228,422.163483 378.174927,432.684143 
	C387.564758,444.335510 396.840851,456.079010 406.286255,467.684937 
	C414.422272,477.681915 422.743835,487.527710 430.949615,497.468170 
	C435.406677,502.867401 439.860870,508.272400 444.148773,513.804688 
	C444.906616,514.782471 444.838287,516.400513 445.319427,518.432190 
	C431.118866,512.314392 417.766815,506.550446 404.405182,500.808777 
	C388.219391,493.853577 372.001190,486.973175 355.842499,479.955688 
	C341.876282,473.890350 328.006470,467.602966 314.035095,461.549713 
	C294.930817,453.272491 275.752075,445.167236 256.640991,436.905640 
	C243.400467,431.181854 230.220230,425.318665 216.700394,419.277100 
z"/>
<path fill="#000000" opacity="1.000000" stroke="none" 
	d="
M472.733246,9.701015 
	C477.124207,8.109671 481.205200,6.777120 485.286163,5.444569 
	C485.585938,5.855646 485.885742,6.266723 486.185516,6.677800 
	C484.260864,9.150247 482.519989,11.795807 480.381287,14.066662 
	C467.790161,27.435808 455.074707,40.687801 442.463867,54.038517 
	C432.596680,64.484634 422.773560,74.973351 413.021820,85.527168 
	C407.340027,91.676247 402.008575,98.160858 396.117310,104.095253 
	C394.854797,105.366982 391.604858,105.726212 389.695984,105.134018 
	C367.198364,98.154419 344.781067,90.915825 322.344299,83.740082 
	C315.334656,81.498260 308.330139,79.240417 300.031982,76.575180 
	C358.279755,54.067101 415.351501,32.013454 472.733246,9.701015 
z"/>
<path fill="#000000" opacity="1.000000" stroke="none" 
	d="
M470.905396,515.130371 
	C471.322845,515.488892 471.565826,516.052551 471.808838,516.616272 
	C471.473511,516.484558 471.138184,516.352844 470.611572,515.998352 
	C470.523865,515.628906 470.627380,515.482178 470.905396,515.130371 
z"/>
</svg>
