<svg viewBox="0 0 448 512" xmlns="http://www.w3.org/2000/svg"><path d="m32 32c-17.7 0-32 14.3-32 32v96c0 17.7 14.3 32 32 32s32-14.3 32-32v-64h64c17.7 0 32-14.3 32-32s-14.3-32-32-32zm32 320c0-17.7-14.3-32-32-32s-32 14.3-32 32v96c0 17.7 14.3 32 32 32h96c17.7 0 32-14.3 32-32s-14.3-32-32-32h-64zm256-320c-17.7 0-32 14.3-32 32s14.3 32 32 32h64v64c0 17.7 14.3 32 32 32s32-14.3 32-32v-96c0-17.7-14.3-32-32-32zm128 320c0-17.7-14.3-32-32-32s-32 14.3-32 32v64h-64c-17.7 0-32 14.3-32 32s14.3 32 32 32h96c17.7 0 32-14.3 32-32z"/></svg>