<svg height="96" viewBox="0 0 48 48" width="96" xmlns="http://www.w3.org/2000/svg"><path d="m29 6h-13.256c-.963 0-1.744.781-1.744 1.744v7.259h15z" fill="#169154"/><path d="m14 33.054v7.202c0 .963.781 1.744 1.743 1.744h13.257v-8.946z" fill="#18482a"/><path d="m14 15.003h15v9.002h-15z" fill="#0c8045"/><path d="m14 24.005h15v9.05h-15z" fill="#17472a"/><path d="m42.256 6h-13.256v9.003h15v-7.259c0-.963-.781-1.744-1.744-1.744z" fill="#29c27f"/><path d="m29 33.054v8.946h13.257c.962 0 1.743-.781 1.743-1.743v-7.202h-15z" fill="#27663f"/><path d="m29 15.003h15v9.002h-15z" fill="#19ac65"/><path d="m29 24.005h15v9.05h-15z" fill="#129652"/><path d="m22.319 34h-16.638c-.928 0-1.681-.753-1.681-1.681v-16.638c0-.928.753-1.681 1.681-1.681h16.638c.928 0 1.681.753 1.681 1.681v16.638c0 .928-.753 1.681-1.681 1.681z" fill="#0c7238"/><path d="m9.807 19h2.386l1.936 3.754 2.046-3.754h2.229l-3.071 5 3.141 5h-2.351l-2.11-3.93-2.101 3.93h-2.386l3.193-5.018z" fill="#fff"/></svg>