<svg enable-background="new 0 0 192 192" viewBox="0 0 192 192" xmlns="http://www.w3.org/2000/svg"><path d="m144.908508 153.958221c-10.747772 8.764725-22.720543 13.872773-36.125488 15.287568-7.145325.754135-9.048584-1.216355-9.073357-8.325028-.049911-14.328628.010193-28.657669-.050788-42.986206-.007966-1.870476.796295-4.324211-1.721039-5.224434-2.160172-.772484-3.256569 1.296158-4.484642 2.516464-10.518128 10.451607-20.963898 20.97596-31.463433 31.446358-5.272594 5.25798-8.528209 5.207749-13.221492-.555374-17.066927-20.957336-21.50965-44.437645-12.062985-69.724274 9.147808-24.486652 27.632134-38.900989 53.120857-43.39843 39.282288-6.931284 75.717133 21.448697 79.561509 61.329857 2.312179 23.986382-6.102158 43.688278-24.479142 59.633499m-73.237259-97.793388c-28.999084 19.483429-29.523868 56.86512-14.860675 73.340157 1.44004-1.358185 2.909004-2.676567 4.30347-4.069535 10.949516-10.937706 21.86454-21.910011 32.832947-32.828705 5.497307-5.472404 8.472343-5.508209 13.901894-.112396 11.215118 11.145417 22.351448 22.37014 33.570304 33.511772 1.342179 1.332932 2.358521 3.32441 5.065629 3.199456 6.761657-10.539627 9.746673-22.255761 7.835479-34.603371-6.221832-40.19743-47.1017-59.387886-82.649048-38.437378z"/></svg>